<?xml version="1.0" encoding="utf-8"?>
<!-- Generator: Adobe Illustrator 15.0.2, SVG Export Plug-In . SVG Version: 6.00 Build 0)  -->
<!DOCTYPE svg PUBLIC "-//W3C//DTD SVG 1.1//EN" "http://www.w3.org/Graphics/SVG/1.1/DTD/svg11.dtd">
<svg version="1.1" id="Ebene_1" xmlns="http://www.w3.org/2000/svg" xmlns:xlink="http://www.w3.org/1999/xlink" x="0px" y="0px"
	 width="87.167px" height="39.333px" viewBox="0 0 87.167 39.333" enable-background="new 0 0 87.167 39.333" xml:space="preserve">
<path fill-rule="evenodd" clip-rule="evenodd" fill="#E30613" d="M2.993,36.74c9.04,0,18.08,0,27.12,0
	c0.464-2.735,0.953-5.447,1.44-8.16c-5.443-0.157-11.516,0.315-16.56-0.24c1.558-8.521,3.021-17.139,4.56-25.68
	c-3.44,0-6.88,0-10.32,0C6.76,13.626,5.126,25.433,2.993,36.74z"/>
<path fill-rule="evenodd" clip-rule="evenodd" fill="#E30613" d="M36.353,2.66c-0.872,2.488-1.028,5.691-1.68,8.399
	c3.521,0.16,7.679-0.318,10.8,0.24c-1.53,8.471-2.91,17.09-4.56,25.44c3.52,0,7.04,0,10.56,0c1.743-8.417,2.819-17.502,4.8-25.681
	c3.52,0,7.04,0,10.56,0c0.565-2.715,1.115-5.445,1.44-8.399C57.633,2.66,46.993,2.66,36.353,2.66z"/>
<path fill-rule="evenodd" clip-rule="evenodd" fill="#E30613" d="M73.793,2.66c-2.158,11.202-4.2,22.521-6,34.08
	c3.52,0,7.04,0,10.56,0c1.678-11.603,4.103-22.457,5.76-34.08C80.673,2.66,77.233,2.66,73.793,2.66z"/>
<path fill-rule="evenodd" clip-rule="evenodd" fill="#E30613" d="M9.233,2.66c3.44,0,6.88,0,10.32,0
	c-1.539,8.541-3.002,17.158-4.56,25.68c5.044,0.556,11.117,0.083,16.56,0.24c-0.487,2.713-0.976,5.425-1.44,8.16
	c-9.04,0-18.08,0-27.12,0C5.126,25.433,6.76,13.626,9.233,2.66z"/>
<path fill-rule="evenodd" clip-rule="evenodd" fill="#E30613" d="M68.273,2.66c-0.326,2.954-0.875,5.685-1.44,8.399
	c-3.52,0-7.04,0-10.56,0c-1.981,8.179-3.057,17.264-4.8,25.681c-3.52,0-7.04,0-10.56,0c1.65-8.351,3.03-16.97,4.56-25.44
	c-3.121-0.559-7.279-0.08-10.8-0.24c0.652-2.708,0.808-5.912,1.68-8.399C46.993,2.66,57.633,2.66,68.273,2.66z"/>
<path fill-rule="evenodd" clip-rule="evenodd" fill="#E30613" d="M84.113,2.66c-1.657,11.623-4.083,22.478-5.76,34.08
	c-3.52,0-7.04,0-10.56,0c1.8-11.56,3.842-22.878,6-34.08C77.233,2.66,80.673,2.66,84.113,2.66z"/>
</svg>
